<svg xmlns="http://www.w3.org/2000/svg" width="1000" height="1000" viewBox="0 0 1000 1000">
  <defs>
    <style>
      .cls-1 {
        fill: #b4b4b4;
        fill-rule: evenodd;
      }
    </style>
  </defs>
  <path id="Эллипс_3" data-name="Эллипс 3" class="cls-1" d="M926.715,760.727C862.467,635.593,744.792,542.4,603.812,511.278A207.917,207.917,0,0,0,708,331c0-114.875-93.125-208-208-208S292,216.125,292,331A207.917,207.917,0,0,0,396.188,511.278C255.208,542.4,137.533,635.593,73.285,760.727A497.656,497.656,0,0,1,0,500C0,223.858,223.858,0,500,0s500,223.858,500,500A497.66,497.66,0,0,1,926.715,760.727Z"/>
</svg>
